#!OML:ASF F:\VICON\USERDATA\INSTALL\rory3\rory3.ASF
:FULLY-SPECIFIED
:DEGREES
106
root -1.7979 16.3424 -22.4587 3.04738 3.77606 -0.846412
lowerback 12.55 1.14429 -5.29216
upperback -5.51892 0.837229 2.02684
thorax -13.3392 0.973892 5.05449
lowerneck -8.51495 -7.12586 -4.50675
upperneck 17.8063 -9.92452 4.3914
head 7.30687 -4.69414 1.25814
rclavicle 2.07109e-014 -1.07344e-014
rhumerus -34.3459 3.24655 -86.539
rradius 26.1505
rwrist 10.2079
rhand -12.4646 22.1372
rfingers 7.12502
rthumb 13.6092 -7.39794
lclavicle 2.07109e-014 -1.07344e-014
lhumerus -43.9983 10.6145 81.7745
lradius 19.4641
lwrist -4.35659
lhand -4.56057 18.1787
lfingers 7.12502
lthumb 21.2156 47.0377
rfemur 17.5064 14.8617 28.9635
rtibia -1.27222e-014
rfoot -15.2589 -12.1775
rtoes 19.8553
lfemur -36.8018 -25.2519 -8.09403
ltibia 26.9408
lfoot -13.4704 17.0919
ltoes 15.8368
107
root -1.77179 16.3171 -22.3428 2.93158 3.6583 -0.94239
lowerback 12.5302 1.13062 -5.28111
upperback -5.46049 0.827188 2.06691
thorax -13.2579 0.966369 5.09477
lowerneck -8.38617 -7.0776 -4.53664
upperneck 17.7348 -9.86704 4.45914
head 7.2631 -4.66645 1.29611
rclavicle -5.70264e-015 5.56597e-015
rhumerus -34.4868 3.15741 -86.5966
rradius 25.9101
rwrist 10.4481
rhand -12.9733 22.3918
rfingers 7.12502
rthumb 13.1189 -7.17554
lclavicle -5.70264e-015 5.56597e-015
lhumerus -44.0961 10.5046 81.8823
lradius 19.4186
lwrist -4.17757
lhand -4.7541 18.1188
lfingers 7.12502
lthumb 21.0297 46.9986
rfemur 18.1066 14.7168 29.0826
rtibia 9.54166e-015
rfoot -15.3468 -11.9261
rtoes 19.8326
lfemur -36.344 -24.2907 -8.6657
ltibia 27.2029
lfoot -12.5296 15.9438
ltoes 16.3573
108
root -1.73806 16.295 -22.2263 2.90664 3.5849 -0.925486
lowerback 12.4796 1.13344 -5.2666
upperback -5.31015 0.836097 2.05486
thorax -13.0516 0.957761 5.06848
lowerneck -8.91656 -7.12551 -4.49334
upperneck 17.7491 -9.91905 4.44535
head 7.36116 -4.67894 1.25931
rclavicle -1.44119e-014 1.37161e-014
rhumerus -34.7144 3.04892 -86.5779
rradius 26.1059
rwrist 9.93284
rhand -13.0004 22.6106
rfingers 7.12502
rthumb 13.0928 -6.95845
lclavicle -1.44119e-014 1.37161e-014
lhumerus -43.811 10.5298 81.9315
lradius 19.1661
lwrist -4.2605
lhand -4.97084 18.1947
lfingers 7.12502
lthumb 20.8214 47.0975
rfemur 18.6002 14.5445 29.0248
rtibia 1.90833e-014
rfoot -15.2459 -11.8193
rtoes 18.5113
lfemur -36.0157 -23.4989 -9.28729
ltibia 27.5514
lfoot -11.2113 14.7934
ltoes 17.2437
109
root -1.70065 16.2785 -22.1156 2.91795 3.15095 -1.01093
lowerback 12.5494 1.24347 -5.19413
upperback -5.29544 0.997797 2.0811
thorax -13.0977 1.03023 5.01804
lowerneck -9.23522 -7.09685 -4.66559
upperneck 17.8091 -9.8839 4.65376
head 7.45557 -4.64797 1.34394
rclavicle 6.26172e-015 1.63003e-014
rhumerus -34.7498 3.14244 -86.5879
rradius 25.8199
rwrist 9.95542
rhand -12.5722 22.4506
rfingers 7.12502
rthumb 13.5055 -7.0915
lclavicle 6.26172e-015 1.63003e-014
lhumerus -43.7258 10.5329 81.9276
lradius 19.0366
lwrist -4.44691
lhand -4.80834 18.235
lfingers 7.12502
lthumb 20.9776 47.1206
rfemur 18.9956 14.7454 29.0314
rtibia -1.90833e-014
rfoot -14.7776 -11.8574
rtoes 16.7264
lfemur -35.692 -22.5975 -9.7202
ltibia 27.867
lfoot -9.67607 14.1394
ltoes 16.8496
110
root -1.66427 16.2672 -21.9988 2.85371 2.76206 -0.932502
lowerback 12.6653 1.3773 -5.23143
upperback -5.32057 1.15568 1.99642
thorax -13.2183 1.10704 4.90678
lowerneck -9.23534 -7.05521 -4.62738
upperneck 17.8531 -9.84664 4.71089
head 7.46908 -4.62214 1.3596
rclavicle 6.11263e-015 2.0276e-014
rhumerus -34.7129 2.91643 -86.5703
rradius 25.3867
rwrist 10.2966
rhand -12.0718 21.9499
rfingers 7.12502
rthumb 13.9878 -7.55948
lclavicle 6.11263e-015 2.0276e-014
lhumerus -43.8303 10.0987 82.1341
lradius 19.1396
lwrist -4.24301
lhand -4.66778 18.4999
lfingers 7.12502
lthumb 21.1126 47.3704
rfemur 17.2603 14.8894 28.8988
rtibia 4.07019
rfoot -16.1216 -11.6749
rtoes 15.2942
lfemur -35.3189 -22.0534 -10.2195
ltibia 28.1001
lfoot -8.64443 13.9312
ltoes 18.1337
111
root -1.62544 16.2599 -21.8693 2.68511 2.68715 -0.639088
lowerback 12.8267 1.41557 -5.41015
upperback -5.2921 1.14831 1.84859
thorax -13.2851 1.11153 4.84456
lowerneck -9.335 -7.07852 -4.37045
upperneck 17.8972 -9.88424 4.52329
head 7.47972 -4.63722 1.25073
rclavicle 1.24116e-014 -9.34288e-015
rhumerus -34.8491 2.3443 -86.387
rradius 25.0698
rwrist 10.798
rhand -11.9637 21.6856
rfingers 7.12502
rthumb 14.092 -7.8166
lclavicle 1.24116e-014 -9.34288e-015
lhumerus -44.0779 9.79159 82.254
lradius 19.3731
lwrist -4.06975
lhand -4.60674 19.1877
lfingers 7.12502
lthumb 21.1712 48.0517
rfemur 16.6175 14.7012 28.5353
rtibia 6.46628
rfoot -16.8016 -11.3378
rtoes 15.0263
lfemur -34.954 -22.0276 -10.8725
ltibia 28.3872
lfoot -8.10121 13.8865
ltoes 21.0641
